<svg version="1.1" width="19965.403199999997" height="18538.75" xmlns="http://www.w3.org/2000/svg">
  <polygon transform="scale(0.001 0.001) translate(830088 6232847)" points="0,0 36898,0 36898,-400615 199397,-400615 199397,-853186 473755,-853186 473755,-1010854 778709,-1010854 778709,-1066796 490829,-1066796 490829,-1486485 36898,-1486485 36898,-1613442 -526474,-1613442 -526474,-1979757 -830088,-1979757 -830088,-2096796 -555771,-2096796 -555771,-2478669 -387518,-2478669 -387518,-2582119 -124949,-2582119 -124949,-2478669 199642,-2478669 199642,-2821610 257658,-2821610 257658,-2953042 603700,-2953042 603700,-3371572 1133319,-3371572 1133319,-2953042 1188262,-2953042 1188262,-2821610 1834035,-2821610 1834035,-3067100 1689194,-3067100 1689194,-3297926 2236282,-3297926 2236282,-3775269 2529532,-3775269 2529532,-3922145 2270450,-3922145 2270450,-4136659 2291994,-4136659 2291994,-4648023 2270450,-4648023 2270450,-4651468 1970098,-4651468 1970098,-4643994 2048428,-4643994 2048428,-4218242 1970098,-4218242 1970098,-3922145 1689194,-3922145 1689194,-4188137 1190745,-4188137 1190745,-4204425 1834035,-4204425 1834035,-4477410 1173348,-4477410 1173348,-4418186 1060944,-4418186 1060944,-3811012 909118,-3811012 909118,-3678983 416913,-3678983 416913,-4037776 -245650,-4037776 -245650,-4418186 -278105,-4418186 -278105,-4477410 -830088,-4477410 -830088,-4663467 -635113,-4663467 -635113,-5042498 -325417,-5042498 -325417,-5584250 36898,-5584250 36898,-5617875 62864,-5617875 62864,-5620572 395168,-5620572 395168,-5668718 778479,-5668718 778479,-6016861 1028147,-6016861 1028147,-6232847 1218754,-6232847 1218754,-6103640 1392500,-6103640 1392500,-5491588 1686877,-5491588 1686877,-5437030 2104875,-5437030 2104875,-5397096 2396146,-5397096 2396146,-5282616 2616658,-5282616 2616658,-4988413 2659154,-4988413 2659154,-4279866 2704855,-4279866 2704855,-4237795 3265237,-4237795 3265237,-3947073 3596654,-3947073 3596654,-3701647 3106519,-3701647 3106519,-3156008 2616658,-3156008 2616658,-3086241 2992302,-3086241 2992302,-2729853 3149657,-2729853 3149657,-2552593 3663006,-2552593 3663006,-2209261 3504095,-2209261 3504095,-1686036 3496521,-1686036 3496521,-1644399 2822268,-1644399 2822268,-1407017 3116625,-1407017 3116625,-1047776 3483211,-1047776 3483211,-1407017 3663006,-1407017 3663006,-1209159 3898660,-1209159 3898660,-1590469 4311295,-1590469 4311295,-2169958 4470505,-2169958 4470505,-2552593 4853425,-2552593 4853425,-2676462 5243607,-2676462 5243607,-2383567 4609512,-2383567 4609512,-2203666 4545749,-2203666 4545749,-1944670 5243607,-1944670 5243607,-1736134 5372152,-1736134 5372152,-1662987 5437118,-1662987 5437118,-1803723 5611575,-1803723 5611575,-2004348 5732800,-2004348 5732800,-2329207 5611575,-2329207 5611575,-2676462 5989739,-2676462 5989739,-2950075 6433632,-2950075 6433632,-3297702 6648230,-3297702 6648230,-3660179 6987588,-3660179 6987588,-3843034 6591656,-3843034 6591656,-4132434 6987588,-4132434 6987588,-4413902 7310737,-4413902 7310737,-4806999 6777554,-4806999 6777554,-4886343 6215114,-4886343 6215114,-5270662 5989739,-5270662 5989739,-5479760 6283010,-5479760 6283010,-5901965 6737574,-5901965 6737574,-6010585 6925067,-6010585 6925067,-6232847 7430400,-6232847 7430400,-5773177 7283479,-5773177 7283479,-5803190 6798539,-5803190 6798539,-5773177 6390769,-5773177 6390769,-5525444 6932814,-5525444 6932814,-5344450 7430400,-5344450 7430400,-5064786 7730818,-5064786 7730818,-4969639 7530703,-4969639 7530703,-4441576 7730818,-4441576 7730818,-4007940 8222015,-4007940 8222015,-3985894 8512291,-3985894 8512291,-3349224 8828062,-3349224 8828062,-3205194 9272118,-3205194 9272118,-3735870 9805749,-3735870 9805749,-4165627 9857958,-4165627 9857958,-4816018 10140068,-4816018 10140068,-4499194 10290232,-4499194 10290232,-4327744 9998599,-4327744 9998599,-3776601 10290232,-3776601 10290232,-3735870 10693721,-3735870 10693721,-3205194 10736764,-3205194 10736764,-3642527 10828812,-3642527 10828812,-3985894 11008387,-3985894 11008387,-4250308 11604319,-4250308 11604319,-3985894 11670867,-3985894 11670867,-4302745 11902387,-4302745 11902387,-4923331 12299679,-4923331 12299679,-4419471 12425407,-4419471 12425407,-4218036 12789856,-4218036 12789856,-4326080 13038580,-4326080 13038580,-4218036 13289649,-4218036 13289649,-4419471 13427491,-4419471 13427491,-3985894 13464210,-3985894 13464210,-3809493 12834190,-3809493 12834190,-3504711 12776393,-3504711 12776393,-3289544 13464210,-3289544 13464210,-3109883 13328015,-3109883 13328015,-2942264 13679309,-2942264 13679309,-2443576 13328015,-2443576 13328015,-1984741 12891310,-1984741 12891310,-1556627 12668396,-1556627 12668396,-2008537 12469147,-2008537 12469147,-2084816 11888660,-2084816 11888660,-1737599 11569531,-1737599 11569531,-1556627 11206628,-1556627 11206628,-1984741 10815750,-1984741 10815750,-1976895 10522306,-1976895 10522306,-1428829 10815750,-1428829 10815750,-1186767 10550436,-1186767 10550436,-1102045 10161842,-1102045 10161842,-1524189 10050580,-1524189 10050580,-1684912 10161842,-1684912 10161842,-1984741 10143130,-1984741 10143130,-2508539 9904373,-2508539 9904373,-2509933 9674229,-2509933 9674229,-2529916 9181977,-2529916 9181977,-3109883 9028731,-3109883 9028731,-2842151 8866130,-2842151 8866130,-2724909 8727316,-2724909 8727316,-2074969 8866130,-2074969 8866130,-1985637 9096179,-1985637 9096179,-1798478 9491238,-1798478 9491238,-1663107 9958806,-1663107 9958806,-1300070 9608109,-1300070 9608109,-1153304 9096179,-1153304 9096179,-796800 8866130,-796800 8866130,-727681 8678423,-727681 8678423,-555900 8300261,-555900 8300261,-727681 7791053,-727681 7791053,-699773 7730818,-699773 7730818,0 8040855,0 8040855,6289 8628401,6289 8628401,0 8848616,0 8848616,28018 9382762,28018 9382762,0 9490626,0 9490626,87226 9601638,87226 9601638,-114142 9705397,-114142 9705397,-387114 9884788,-387114 9884788,-169968 10366216,-169968 10366216,87226 10597217,87226 10597217,473506 10655529,473506 10655529,633139 11272002,633139 11272002,999145 11707962,999145 11707962,1339085 12262024,1339085 12262024,1733032 11707962,1733032 11707962,1776235 11272002,1776235 11272002,1879422 11661618,1879422 11661618,2390869 12100871,2390869 12100871,2540679 12615987,2540679 12615987,2945446 12897277,2945446 12897277,3536326 13337589,3536326 13337589,2945446 13528959,2945446 13528959,3354912 13828815,3354912 13828815,3931428 14333057,3931428 14333057,4502512 14775803,4502512 14775803,4977412 15089220,4977412 15089220,4767355 15128300,4767355 15128300,4331245 15089220,4331245 15089220,4010735 15136432,4010735 15136432,3576470 15233194,3576470 15233194,3220278 15321921,3220278 15321921,3100917 16000404,3100917 16000404,3018359 16266497,3018359 16266497,2945446 16577537,2945446 16577537,2893960 16723967,2893960 16723967,2945446 17160499,2945446 17160499,3068181 16658845,3068181 16658845,3518227 16321731,3518227 16321731,3979898 16001672,3979898 16001672,4180049 16136736,4180049 16136736,4836110 16263684,4836110 16263684,4506237 16632922,4506237 16632922,4173386 16998938,4173386 16998938,4506237 17478515,4506237 17478515,4836110 17708662,4836110 17708662,5243618 17426332,5243618 17426332,5429679 17177813,5429679 17177813,5875280 17506992,5875280 17506992,6014133 17177813,6014133 17177813,6399510 17426332,6399510 17426332,6636222 17082572,6636222 17082572,6519982 16798848,6519982 16798848,6110698 16841788,6110698 16841788,5844277 16798848,5844277 16798848,5639843 16445301,5639843 16445301,5243618 16001672,5243618 16001672,5250793 16404390,5250793 16404390,5708407 16658845,5708407 16658845,6029221 16478973,6029221 16478973,5921135 16036590,5921135 16036590,6029221 15699540,6029221 15699540,6188537 15537403,6188537 15537403,6404901 15089967,6404901 15089967,6794139 14919616,6794139 14919616,7057524 14413831,7057524 14413831,7077563 13829405,7077563 13829405,7057524 13823102,7057524 13823102,6794139 13702236,6794139 13702236,7058333 13741469,7058333 13741469,7463086 14130751,7463086 14130751,7599685 14152342,7599685 14152342,7952472 14335767,7952472 14335767,7421081 14874404,7421081 14874404,7388178 15100155,7388178 15100155,7952472 15399433,7952472 15399433,7989261 15537403,7989261 15537403,8113277 15699540,8113277 15699540,8521420 15127471,8521420 15127471,8654785 15075157,8654785 15075157,8890234 14989117,8890234 14989117,9172045 14783044,9172045 14783044,9586135 14246766,9586135 14246766,9965783 14063763,9965783 14063763,10015969 13743100,10015969 13743100,9760689 13640312,9760689 13640312,10017621 13050417,10017621 13050417,9760689 12950058,9760689 12950058,10015969 12427670,10015969 12427670,9953149 12030570,9953149 12030570,9784214 12455201,9784214 12455201,9277005 12030570,9277005 12030570,8654785 11720049,8654785 11720049,8337735 12071723,8337735 12071723,8142250 11720049,8142250 11720049,7838286 12104576,7838286 12104576,7567967 12576574,7567967 12576574,7306340 12397155,7306340 12397155,6875741 12075778,6875741 12075778,6509021 11720049,6509021 11720049,6029221 11661618,6029221 11661618,6109127 11500316,6109127 11500316,6454557 10998822,6454557 10998822,6777111 10806905,6777111 10806905,6794131 10384463,6794131 10384463,6978159 10340924,6978159 10340924,7427558 10733798,7427558 10733798,7407540 10741843,7407540 10741843,7235124 11226964,7235124 11226964,7407540 11568906,7407540 11568906,7427558 11661618,7427558 11661618,7750560 11075440,7750560 11075440,7950728 11018239,7950728 11018239,8408269 10813007,8408269 10813007,8689881 10760797,8689881 10760797,8878008 10349704,8878008 10349704,8880108 9967776,8880108 9967776,9427726 9490626,9427726 9490626,9490626 9440900,9490626 9440900,9246555 9024144,9246555 9024144,8778222 8806919,8778222 8806919,9490626 8537085,9490626 8537085,9924581 8517640,9924581 8517640,10343582 8139336,10343582 8139336,10404989 7749176,10404989 7749176,10126723 7377465,10126723 7377465,9877705 7104793,9877705 7104793,9366028 7377465,9366028 7377465,9319158 7749176,9319158 7749176,9077381 7103781,9077381 7103781,8993352 6763966,8993352 6763966,9601255 6499110,9601255 6499110,9620996 6297911,9620996 6297911,10132863 6220103,10132863 6220103,10404989 5838215,10404989 5838215,10092776 5772224,10092776 5772224,9553329 5651104,9553329 5651104,9490626 5531706,9490626 5531706,9339541 5144598,9339541 5144598,8802144 4973313,8802144 4973313,8733956 4841603,8733956 4841603,8315583 5286715,8315583 5286715,8206782 4841603,8206782 4841603,7831527 4422247,7831527 4422247,7795236 3903726,7795236 3903726,7531059 3317109,7531059 3317109,7229099 3341726,7229099 3341726,6827470 3501099,6827470 3501099,6557168 3814521,6557168 3814521,6465457 3317109,6465457 3317109,6086872 3150960,6086872 3150960,5711640 3537446,5711640 3537446,5430121 3094675,5430121 3094675,5303296 2605847,5303296 2605847,5216721 2824545,5216721 2824545,4960492 3049985,4960492 3049985,4635112 3401084,4635112 3401084,5216721 3407722,5216721 3407722,4823336 3537446,4823336 3537446,4727061 3805742,4727061 3805742,4374394 4437783,4374394 4437783,4196578 4493596,4196578 4493596,3953021 4728827,3953021 4728827,3639497 4248916,3639497 4248916,4108225 3776119,4108225 3776119,4395237 3456120,4395237 3456120,4108225 3250795,4108225 3250795,3639497 3150960,3639497 3150960,3342032 2442651,3342032 2442651,3063423 2055298,3063423 2055298,2991083 1793359,2991083 1793359,2639268 2055298,2639268 2055298,2274813 1702482,2274813 1702482,1877948 1225940,1877948 1225940,1321807 970578,1321807 970578,1202579 880390,1202579 880390,797754 838685,797754 838685,1200673 347983,1200673 347983,797754 114212,797754 114212,590766 0,590766 0,0" />
</svg>