<svg version="1.1" width="120" height="150" xmlns="http://www.w3.org/2000/svg">
  <rect x="-2" y="0" width="4" height="3" fill="black" transform="scale(10 10) translate(4 0)"/>
  <rect x="-3" y="3" width="7" height="1" fill="blue" transform="scale(10 10) translate(4 0)"/>
  <rect x="-1" y="4" width="3" height="1" fill="red" transform="scale(10 10) translate(4 0)"/>
  <rect x="-1" y="5" width="3" height="2" fill="yellow" transform="scale(10 10) translate(4 0)"/>
  <rect x="7" y="5" width="1" height="2" fill="grey" transform="scale(10 10) translate(4 0)"/>
  <rect x="-1" y="7" width="10" height="1" fill="green" transform="scale(10 10) translate(4 0)"/>
  <rect x="-4" y="8" width="13" height="1" fill="aqua" transform="scale(10 10) translate(4 0)"/>
  <rect x="-4" y="9" width="2" height="1" fill="burlywood" transform="scale(10 10) translate(4 0)"/>
  <rect x="1" y="9" width="10" height="1" fill="coral" transform="scale(10 10) translate(4 0)"/>
  <rect x="7" y="10" width="4" height="1" fill="darkolivegreen" transform="scale(10 10) translate(4 0)"/>
  <rect x="7" y="11" width="2" height="1" fill="black" transform="scale(10 10) translate(4 0)"/>
</svg>